<svg xmlns="http://www.w3.org/2000/svg" viewBox="0 0 42 42"><g fill="none"><path fill="#69ace0" d="M0 0h42v42H0z"/><path fill="#fff" d="M27.667 16.333 29.333 16s-1.4 1.567-1.666 1.667c-.034.766 0 1 0 1-3.2 13.733-15 7.666-15 7.666 4.3.1 4.666-1.666 4.666-1.666-2.5-.367-3-2-3-2 .867.4 1.334-.334 1.334-.334-2.7-.7-2.334-3.333-2.334-3.333.467.4 1.2.567 1.634.633-.3-.366-2.834-3.4-1.3-4.966 0 0 1.866 3.333 6.766 3.633l.334-.067C20.7 18 20.7 17.767 20.7 17.5a3.5 3.5 0 0 1 3.5-3.5c2.333 0 2.833 1.333 2.833 1.333l1.667-1c-.033 0-.2 1.667-1.033 2z"/></g></svg>