<svg xmlns="http://www.w3.org/2000/svg" viewBox="0 0 42 42">
    <defs>
        <radialGradient id="b" cx="22.169%" cy="100%" r="75.942%" fx="22.169%" fy="100%">
            <stop offset="0%" stop-color="#ffc85a" />
            <stop offset="100%" stop-color="#f24a75" />
        </radialGradient>
        <linearGradient id="a" x1="50%" x2="50%" y1="0%" y2="96.71%">
            <stop offset="0%" stop-color="#5974f6" />
            <stop offset="100%" stop-color="#f24a75" />
        </linearGradient>
    </defs>
    <g fill="none">
        <path fill="url(#a)" d="M0 0h42v42H0z" />
        <path fill="url(#b)" d="M0 0h42v42H0z" />
        <path fill="#fff"
            d="M12 17.199A5.199 5.199 0 0 1 17.199 12H24.8a5.199 5.199 0 0 1 5.2 5.199V24.8a5.199 5.199 0 0 1-5.199 5.2H17.2a5.199 5.199 0 0 1-5.2-5.199V17.2zm1.63.155v7.292a3.725 3.725 0 0 0 3.724 3.725h7.292a3.725 3.725 0 0 0 3.725-3.725v-7.292a3.725 3.725 0 0 0-3.725-3.725h-7.292a3.725 3.725 0 0 0-3.725 3.725zm7.342 8.355a4.737 4.737 0 1 1 0-9.474 4.737 4.737 0 0 1 0 9.474zm0-1.686a3.05 3.05 0 1 0 0-6.102 3.05 3.05 0 0 0 0 6.102z" />
        <circle cx="25.263" cy="15.789" r="1" fill="#fff" />
    </g>
</svg>