<svg xmlns="http://www.w3.org/2000/svg" viewBox="0 0 42 42"><g fill="none"><path fill="#1d98dc" d="M0 0h42v42H0z"/><path fill="#d8e4ee" d="M18.236 26.982c-.494 0-.41-.187-.581-.658L16.2 21.535l11.2-6.644"/><path fill="#c1d7e5" d="M18.236 27.057c.382 0 .55-.174.764-.382l2.036-1.98-2.54-1.531"/><path fill="#fff" d="m18.506 23.193 6.155 4.547c.703.388 1.21.187 1.384-.652l2.506-11.806c.256-1.028-.392-1.495-1.064-1.19l-14.712 5.673c-1.004.403-.998.963-.183 1.212l3.776 1.179 8.74-5.514c.413-.25.791-.116.48.16"/></g></svg>