<svg xmlns="http://www.w3.org/2000/svg" viewBox="0 0 42 42"><g fill="none"><path fill="#507299" d="M0 0h42v42H0z"/><path fill="#fff" d="M22.426 25.471a.646.646 0 0 0 .476-.204.66 3.663 0 0 0 .136-.408s0-1.342.612-1.546c.611-.204 1.427 1.275 2.243 1.818a1.87 1.87 0 0 0 1.156.34h2.244s1.155 0 .611-1.002a8.346 8.346 0 0 0-1.7-1.887c-1.427-1.275-1.223-1.07.477-3.298 1.02-1.342 1.427-2.158 1.36-2.566-.069-.408-.884-.272-.884-.272h-2.499a.918.918 0 0 0-.34 0 .527.527 0 0 0-.204.272c-.262.677-.58 1.33-.952 1.955-1.155 1.886-1.563 1.954-1.7 1.886-.135-.068-.34-1.07-.34-1.7 0-1.818.273-2.566-.543-2.77a3.926 3.926 0 0 0-1.377-.05 5.949 5.949 0 0 0-2.108.203c-.272.136-.544.476-.408.476.285.007.555.13.748.34.185.35.279.742.272 1.139 0 0 .136 2.158-.34 2.43-.476.272-.816-.204-1.835-1.886a10.997 10.997 0 0 1-.884-1.82.527.527 0 0 0-.187-.271.68.68 0 0 0-.408-.136h-2.448a.85.85 0 0 0-.544.136c-.136.136 0 .408 0 .408a27.195 27.195 0 0 0 4.08 6.544 5.864 5.864 0 0 0 4.215 1.886l1.07-.017z"/></g></svg>